<?xml version="1.0" encoding="UTF-8" standalone="no"?>
<!DOCTYPE svg PUBLIC "-//W3C//DTD SVG 1.1//EN" "http://www.w3.org/Graphics/SVG/1.1/DTD/svg11.dtd">
<svg width="100%" height="100%" viewBox="0 0 459 271" version="1.1" xmlns="http://www.w3.org/2000/svg" xmlns:xlink="http://www.w3.org/1999/xlink" xml:space="preserve" xmlns:serif="http://www.serif.com/" style="fill-rule:evenodd;clip-rule:evenodd;stroke-linejoin:round;stroke-miterlimit:2;">
    <g transform="matrix(4.16667,0,0,4.16667,0,0)">
        <path d="M40.618,26.831C43.089,26.831 44.911,24.575 44.911,20.194C44.911,16.856 43.782,13.561 40.099,13.561C36.542,13.561 35.067,16.551 35.067,19.891C35.067,24.184 36.28,26.831 40.618,26.831Z" style="fill:white;fill-rule:nonzero;"/>
        <path d="M11.782,35.827C11.782,37.735 13.083,38.602 14.862,38.602C18.286,38.602 20.239,36.086 20.153,32.618L17.376,32.618C14.429,32.618 11.782,33.094 11.782,35.827Z" style="fill:white;fill-rule:nonzero;"/>
        <path d="M89.975,41.248C86.288,41.248 85.159,44.545 85.159,47.885C85.159,52.266 86.981,54.52 89.456,54.52C93.79,54.52 95.005,51.875 95.005,47.582C95.005,44.241 93.53,41.248 89.975,41.248Z" style="fill:white;fill-rule:nonzero;"/>
        <path d="M103.243,58.034L95.222,58.034L95.222,54.651L95.136,54.651C93.315,57.512 91.536,58.639 87.936,58.639C82.04,58.639 79.174,53.653 79.174,48.188C79.174,40.729 82.993,37.129 88.282,37.129C91.71,37.129 93.618,38.778 94.573,40.729L94.659,40.729L94.659,10.411L91.839,10.411L91.839,6.507L100.425,6.507L100.425,54.129L103.243,54.129L103.243,58.034ZM72.028,27.969L72.028,18.95L69.21,18.95L69.21,15.045L77.795,15.045L77.795,27.752C77.795,29.834 79.01,31.831 81.354,31.831C84.477,31.831 85.731,28.967 85.731,26.366L85.731,18.95L83.129,18.95L83.129,15.045L91.501,15.045L91.501,35.34L86.254,35.34L86.254,31.916L86.167,31.916C84.78,34.518 82.176,35.95 79.272,35.95C73.893,35.95 72.028,33.086 72.028,27.969ZM70.786,53.586C66.926,53.586 64.497,50.811 64.497,47.772L64.497,36.586L61.245,36.586L61.245,32.686L64.497,32.686L64.497,28.739L70.266,26.7L70.266,37.436L75.668,37.436L75.668,41.338L70.266,41.338L70.266,46.385C70.266,47.862 70.266,49.465 71.958,49.465C73.606,49.465 73.694,47.383 73.694,46.473L77.163,46.473C77.335,51.114 75.645,53.586 70.786,53.586ZM62.301,48.393L50.896,48.393L50.896,44.491L53.714,44.491L53.714,32L50.896,32L50.896,28.1L59.483,28.1L59.483,44.491L62.301,44.491L62.301,48.393ZM46.896,58.639C43.036,58.639 40.606,55.864 40.606,52.827L40.606,41.637L37.356,41.637L37.356,37.737L40.606,37.737L40.606,33.788L46.374,31.752L46.374,37.737L51.796,37.737L51.796,41.637L46.374,41.637L46.374,51.438C46.374,52.915 46.374,54.52 48.065,54.52C49.714,54.52 49.802,52.436 49.802,51.526L53.271,51.526C53.444,56.166 51.753,58.639 46.896,58.639ZM38.536,47.606L26.827,47.606L26.827,43.702L29.646,43.702L29.646,13.952L26.827,13.952L26.827,10.047L34.894,10.047L34.894,13.647L34.98,13.647C36.628,10.698 38.796,9.439 41.788,9.439C47.079,9.439 50.896,13.04 50.896,20.5C50.896,25.963 48.032,30.952 42.136,30.952C39.101,30.952 37.366,30.213 35.501,27.524L35.413,27.524L35.413,43.702L38.536,43.702L38.536,47.606ZM20.239,41.899L20.239,38.95L20.153,38.95C18.374,41.68 16.509,42.506 13.431,42.506C9.657,42.506 6.36,40.338 6.36,36C6.36,29.323 13.04,29.151 18.114,29.151L20.153,29.151L20.153,27.588C20.153,25.202 18.374,24.467 16.249,24.467C13.993,24.467 12.606,25.42 12.433,27.762L7.011,27.762C7.358,21.952 12.13,20.997 16.899,20.997C23.448,20.997 25.573,23.729 25.573,29.889L25.573,37.995L28.177,37.995L28.177,41.899L20.239,41.899ZM53.497,19.426L59.483,19.426L59.483,25.194L53.497,25.194L53.497,19.426ZM106.786,48.844L106.786,6.507C106.786,2.994 103.938,0.146 100.425,0.146L91.839,0.146C88.327,0.146 85.477,2.994 85.477,6.507L85.477,8.683L69.21,8.683C63.299,8.669 64.756,12.872 64.467,16.211C63.575,15.045 62.036,13.334 60.325,13.239C57.77,13.094 56.052,13.065 56.052,13.065C53.581,6.222 47.667,3.078 41.788,3.078C40.272,3.078 26.827,3.685 26.827,3.685C23.314,3.685 20.466,6.533 20.466,10.047L20.466,13.952C20.466,14.28 20.497,14.6 20.546,14.916C19.323,14.717 18.091,14.635 16.899,14.635C3.433,14.635 0.947,22.622 0.662,27.383C0.601,28.403 0,33.913 0,36C0,43.456 5.647,48.868 13.431,48.868C15.358,48.868 20.499,48.26 20.499,48.26C20.827,51.465 23.534,53.967 26.827,53.967L34.304,53.967C34.884,60.239 40.202,65 46.896,65C50.903,65 54.089,63.807 56.358,61.45C58.024,59.719 59.655,57.471 60.053,54.754C60.053,54.754 65.772,59.784 70.786,59.948C72.774,60.012 74.559,59.653 76.131,59.069C78.835,62.762 83.004,65 87.936,65C89.977,65 103.243,64.395 103.243,64.395C106.757,64.395 109.604,61.547 109.604,58.034L109.604,54.129C109.604,51.928 108.487,49.987 106.786,48.844Z" style="fill:white;fill-rule:nonzero;"/>
        <rect x="70.249" y="37.436" width="0.017" height="3.902" style="fill:white;fill-rule:nonzero;"/>
    </g>
</svg>
