<?xml version="1.0" encoding="UTF-8" standalone="no"?>
<!DOCTYPE svg PUBLIC "-//W3C//DTD SVG 1.1//EN" "http://www.w3.org/Graphics/SVG/1.1/DTD/svg11.dtd">
<svg width="100%" height="100%" viewBox="0 0 459 271" version="1.1" xmlns="http://www.w3.org/2000/svg" xmlns:xlink="http://www.w3.org/1999/xlink" xml:space="preserve" xmlns:serif="http://www.serif.com/" style="fill-rule:evenodd;clip-rule:evenodd;stroke-linejoin:round;stroke-miterlimit:2;">
    <g transform="matrix(4.16667,0,0,4.16667,0,0)">
        <g opacity="0.81">
            <path d="M106.788,48.844L106.788,6.506C106.788,2.993 103.94,0.145 100.426,0.145L91.84,0.145C88.328,0.145 85.479,2.993 85.479,6.506L85.479,8.682L69.211,8.682C63.301,8.668 64.758,12.87 64.469,16.209C63.576,15.043 62.037,13.332 60.326,13.237C57.772,13.092 56.053,13.063 56.053,13.063C53.582,6.221 47.668,3.077 41.789,3.077C40.272,3.077 26.827,3.684 26.827,3.684C23.314,3.684 20.465,6.532 20.465,10.045L20.465,13.95C20.465,14.278 20.498,14.598 20.546,14.914C19.324,14.715 18.091,14.633 16.9,14.633C3.433,14.633 0.946,22.62 0.662,27.381C0.601,28.401 0,33.913 0,36C0,43.455 5.648,48.868 13.431,48.868C15.359,48.868 20.499,48.26 20.499,48.26C20.827,51.465 23.535,53.967 26.827,53.967L34.304,53.967C34.883,60.239 40.203,65 46.897,65C50.904,65 54.09,63.807 56.359,61.45C58.025,59.719 59.656,57.471 60.055,54.754C60.055,54.754 65.773,59.784 70.787,59.948C72.775,60.012 74.561,59.653 76.133,59.069C78.836,62.762 83.006,65 87.938,65C89.979,65 103.245,64.395 103.245,64.395C106.758,64.395 109.606,61.547 109.606,58.034L109.606,54.129C109.606,51.928 108.489,49.987 106.788,48.844Z" style="fill:white;fill-rule:nonzero;"/>
            <path d="M51.797,41.637L46.375,41.637L46.375,51.438C46.375,52.914 46.375,54.52 48.066,54.52C49.715,54.52 49.803,52.436 49.803,51.526L53.272,51.526C53.445,56.166 51.754,58.639 46.897,58.639C43.037,58.639 40.607,55.864 40.607,52.827L40.607,41.637L37.356,41.637L37.356,37.737L40.607,37.737L40.607,33.788L46.375,31.75L46.375,37.737L51.797,37.737L51.797,41.637Z" style="fill:rgb(25,134,154);fill-rule:nonzero;"/>
            <rect x="70.25" y="37.436" width="5.42" height="3.902" style="fill:rgb(25,134,154);fill-rule:nonzero;"/>
            <path d="M70.268,26.698L70.268,46.385C70.268,47.862 70.268,49.465 71.959,49.465C73.607,49.465 73.695,47.383 73.695,46.473L77.164,46.473C77.336,51.114 75.647,53.586 70.787,53.586C66.928,53.586 64.498,50.811 64.498,47.772L64.498,36.586L61.246,36.586L61.246,32.684L64.498,32.684L64.498,28.737L70.268,26.698Z" style="fill:rgb(25,134,154);fill-rule:nonzero;"/>
            <path d="M17.377,32.616C14.428,32.616 11.783,33.094 11.783,35.827C11.783,37.735 13.084,38.602 14.862,38.602C18.287,38.602 20.24,36.086 20.153,32.616L17.377,32.616ZM20.24,38.95L20.153,38.95C18.375,41.68 16.509,42.506 13.431,42.506C9.658,42.506 6.361,40.338 6.361,36C6.361,29.321 13.04,29.149 18.115,29.149L20.153,29.149L20.153,27.586C20.153,25.2 18.375,24.465 16.25,24.465C13.994,24.465 12.606,25.418 12.433,27.76L7.011,27.76C7.358,21.95 12.13,20.995 16.9,20.995C23.449,20.995 25.574,23.727 25.574,29.887L25.574,37.995L28.176,37.995L28.176,41.899L20.24,41.899L20.24,38.95Z" style="fill:rgb(25,134,154);fill-rule:nonzero;"/>
            <path d="M59.484,25.192L53.498,25.192L53.498,19.424L59.484,19.424L59.484,25.192ZM50.897,44.491L53.715,44.491L53.715,31.998L50.897,31.998L50.897,28.098L59.484,28.098L59.484,44.491L62.303,44.491L62.303,48.393L50.897,48.393L50.897,44.491Z" style="fill:rgb(25,134,154);fill-rule:nonzero;"/>
            <path d="M91.502,15.043L91.502,35.34L86.256,35.34L86.256,31.914L86.168,31.914C84.781,34.518 82.178,35.95 79.273,35.95C73.895,35.95 72.029,33.086 72.029,27.967L72.029,18.948L69.211,18.948L69.211,15.043L77.797,15.043L77.797,27.75C77.797,29.832 79.012,31.829 81.356,31.829C84.479,31.829 85.732,28.965 85.732,26.364L85.732,18.948L83.131,18.948L83.131,15.043L91.502,15.043Z" style="fill:rgb(25,134,154);fill-rule:nonzero;"/>
            <path d="M95.006,47.582C95.006,44.241 93.531,41.248 89.977,41.248C86.289,41.248 85.16,44.545 85.16,47.885C85.16,52.266 86.982,54.52 89.457,54.52C93.791,54.52 95.006,51.875 95.006,47.582ZM100.426,54.129L103.245,54.129L103.245,58.034L95.223,58.034L95.223,54.651L95.137,54.651C93.316,57.512 91.537,58.639 87.938,58.639C82.041,58.639 79.176,53.653 79.176,48.188C79.176,40.729 82.994,37.129 88.283,37.129C91.711,37.129 93.619,38.778 94.574,40.729L94.66,40.729L94.66,10.409L91.84,10.409L91.84,6.506L100.426,6.506L100.426,54.129Z" style="fill:rgb(25,134,154);fill-rule:nonzero;"/>
            <path d="M44.912,20.192C44.912,16.854 43.783,13.559 40.098,13.559C36.542,13.559 35.067,16.549 35.067,19.889C35.067,24.182 36.281,26.829 40.619,26.829C43.09,26.829 44.912,24.573 44.912,20.192ZM26.827,43.702L29.646,43.702L29.646,13.95L26.827,13.95L26.827,10.045L34.893,10.045L34.893,13.645L34.98,13.645C36.627,10.696 38.796,9.438 41.789,9.438C47.08,9.438 50.897,13.038 50.897,20.498C50.897,25.961 48.033,30.95 42.136,30.95C39.1,30.95 37.366,30.211 35.501,27.522L35.414,27.522L35.414,43.702L38.537,43.702L38.537,47.606L26.827,47.606L26.827,43.702Z" style="fill:rgb(25,134,154);fill-rule:nonzero;"/>
        </g>
    </g>
</svg>
